<mxfile host="app.diagrams.net" modified="2022-05-18T06:28:21.321Z" agent="5.0 (Macintosh; Intel Mac OS X 10_15_7) AppleWebKit/537.36 (KHTML, like Gecko) Chrome/101.0.4951.64 Safari/537.36" etag="1PPt9b3en87R6BZuzexy" version="18.0.4" type="github">
  <diagram id="mjWNPQMZ38kRxQa0yu5l" name="Page-1">
    <mxGraphModel dx="1051" dy="682" grid="1" gridSize="10" guides="1" tooltips="1" connect="1" arrows="1" fold="1" page="1" pageScale="1" pageWidth="827" pageHeight="1169" math="0" shadow="0">
      <root>
        <mxCell id="0" />
        <mxCell id="1" parent="0" />
        <mxCell id="Xi_-Juw8ynzdb2QV2Gdj-105" value="" style="rounded=0;whiteSpace=wrap;html=1;fillColor=#f5f5f5;fontColor=#333333;strokeColor=#666666;" vertex="1" parent="1">
          <mxGeometry x="130" y="880" width="590" height="160" as="geometry" />
        </mxCell>
        <mxCell id="Xi_-Juw8ynzdb2QV2Gdj-6" value="" style="rounded=0;whiteSpace=wrap;html=1;fillColor=#f5f5f5;fontColor=#333333;strokeColor=#666666;" vertex="1" parent="1">
          <mxGeometry x="230" y="250" width="520" height="120" as="geometry" />
        </mxCell>
        <mxCell id="YZkpgzFU-N8I7b1r3niC-1" value="" style="rounded=0;whiteSpace=wrap;html=1;align=left;" parent="1" vertex="1">
          <mxGeometry x="230" y="60" width="520" height="190" as="geometry" />
        </mxCell>
        <mxCell id="YZkpgzFU-N8I7b1r3niC-2" value="线程池" style="rounded=0;whiteSpace=wrap;html=1;" parent="1" vertex="1">
          <mxGeometry x="230" y="20" width="520" height="40" as="geometry" />
        </mxCell>
        <mxCell id="YZkpgzFU-N8I7b1r3niC-4" value="任务队列" style="rounded=1;whiteSpace=wrap;html=1;fillColor=#d5e8d4;strokeColor=#82b366;" parent="1" vertex="1">
          <mxGeometry x="260" y="150" width="120" height="60" as="geometry" />
        </mxCell>
        <mxCell id="YZkpgzFU-N8I7b1r3niC-5" value="线程容器" style="rounded=1;whiteSpace=wrap;html=1;fillColor=#ffe6cc;strokeColor=#d79b00;" parent="1" vertex="1">
          <mxGeometry x="414" y="70" width="120" height="60" as="geometry" />
        </mxCell>
        <mxCell id="YZkpgzFU-N8I7b1r3niC-6" value="创建线程的工厂" style="rounded=1;whiteSpace=wrap;html=1;fillColor=#dae8fc;strokeColor=#6c8ebf;" parent="1" vertex="1">
          <mxGeometry x="413.5" y="150" width="120" height="60" as="geometry" />
        </mxCell>
        <mxCell id="YZkpgzFU-N8I7b1r3niC-8" value="" style="edgeStyle=orthogonalEdgeStyle;rounded=0;orthogonalLoop=1;jettySize=auto;html=1;entryX=0;entryY=0.5;entryDx=0;entryDy=0;" parent="1" source="YZkpgzFU-N8I7b1r3niC-7" target="YZkpgzFU-N8I7b1r3niC-1" edge="1">
          <mxGeometry relative="1" as="geometry" />
        </mxCell>
        <mxCell id="YZkpgzFU-N8I7b1r3niC-7" value="Task" style="rounded=0;whiteSpace=wrap;html=1;" parent="1" vertex="1">
          <mxGeometry x="50" y="125" width="120" height="60" as="geometry" />
        </mxCell>
        <mxCell id="YZkpgzFU-N8I7b1r3niC-9" value="核心线程数：占用资源" style="text;html=1;strokeColor=none;fillColor=none;align=center;verticalAlign=middle;whiteSpace=wrap;rounded=0;" parent="1" vertex="1">
          <mxGeometry x="580" y="150" width="130" height="30" as="geometry" />
        </mxCell>
        <mxCell id="YZkpgzFU-N8I7b1r3niC-10" value="最大线程数：闲置时可以归还资源" style="text;html=1;strokeColor=none;fillColor=none;align=center;verticalAlign=middle;whiteSpace=wrap;rounded=0;" parent="1" vertex="1">
          <mxGeometry x="580" y="180" width="130" height="30" as="geometry" />
        </mxCell>
        <mxCell id="YZkpgzFU-N8I7b1r3niC-11" value="coreThreadPoolSize" style="rounded=0;whiteSpace=wrap;html=1;" parent="1" vertex="1">
          <mxGeometry x="235" y="260" width="120" height="40" as="geometry" />
        </mxCell>
        <mxCell id="YZkpgzFU-N8I7b1r3niC-12" value="maxThreadPoolSize" style="rounded=0;whiteSpace=wrap;html=1;" parent="1" vertex="1">
          <mxGeometry x="235" y="320" width="120" height="40" as="geometry" />
        </mxCell>
        <mxCell id="YZkpgzFU-N8I7b1r3niC-14" value="KeepalievTime" style="rounded=0;whiteSpace=wrap;html=1;" parent="1" vertex="1">
          <mxGeometry x="365" y="260" width="120" height="40" as="geometry" />
        </mxCell>
        <mxCell id="YZkpgzFU-N8I7b1r3niC-15" value="TimeUnit" style="rounded=0;whiteSpace=wrap;html=1;" parent="1" vertex="1">
          <mxGeometry x="365" y="320" width="120" height="40" as="geometry" />
        </mxCell>
        <mxCell id="YZkpgzFU-N8I7b1r3niC-16" value="ThreadFactory" style="rounded=0;whiteSpace=wrap;html=1;" parent="1" vertex="1">
          <mxGeometry x="495" y="320" width="120" height="40" as="geometry" />
        </mxCell>
        <mxCell id="YZkpgzFU-N8I7b1r3niC-17" value="Strategy" style="rounded=0;whiteSpace=wrap;html=1;" parent="1" vertex="1">
          <mxGeometry x="625" y="260" width="120" height="40" as="geometry" />
        </mxCell>
        <mxCell id="YZkpgzFU-N8I7b1r3niC-18" value="WorkQueue" style="rounded=0;whiteSpace=wrap;html=1;" parent="1" vertex="1">
          <mxGeometry x="495" y="260" width="120" height="40" as="geometry" />
        </mxCell>
        <mxCell id="Xi_-Juw8ynzdb2QV2Gdj-7" value="" style="endArrow=none;html=1;rounded=0;strokeWidth=13;" edge="1" parent="1">
          <mxGeometry width="50" height="50" relative="1" as="geometry">
            <mxPoint x="10" y="410" as="sourcePoint" />
            <mxPoint x="830" y="410" as="targetPoint" />
          </mxGeometry>
        </mxCell>
        <mxCell id="Xi_-Juw8ynzdb2QV2Gdj-11" value="线程池组成" style="labelPosition=center;verticalLabelPosition=middle;align=center;html=1;shape=mxgraph.basic.shaded_button;dx=10;fillColor=#E6E6E6;strokeColor=none;" vertex="1" parent="1">
          <mxGeometry width="100" height="60" as="geometry" />
        </mxCell>
        <mxCell id="Xi_-Juw8ynzdb2QV2Gdj-12" value="线程池状态" style="labelPosition=center;verticalLabelPosition=middle;align=center;html=1;shape=mxgraph.basic.shaded_button;dx=10;fillColor=#E6E6E6;strokeColor=none;" vertex="1" parent="1">
          <mxGeometry y="420" width="100" height="60" as="geometry" />
        </mxCell>
        <mxCell id="Xi_-Juw8ynzdb2QV2Gdj-13" value="Running&lt;br&gt;接收新任务和进程队列任务" style="rounded=0;whiteSpace=wrap;html=1;" vertex="1" parent="1">
          <mxGeometry y="500" width="190" height="60" as="geometry" />
        </mxCell>
        <mxCell id="Xi_-Juw8ynzdb2QV2Gdj-14" value="ShutDown&lt;br&gt;不接收新任务，但是接收进程队列任务" style="rounded=0;whiteSpace=wrap;html=1;" vertex="1" parent="1">
          <mxGeometry y="570" width="190" height="60" as="geometry" />
        </mxCell>
        <mxCell id="Xi_-Juw8ynzdb2QV2Gdj-15" value="Stop&lt;br&gt;不接收新任务和进程队列任务&lt;br&gt;打断所有进程队列正在运行的任务" style="rounded=0;whiteSpace=wrap;html=1;" vertex="1" parent="1">
          <mxGeometry y="640" width="190" height="60" as="geometry" />
        </mxCell>
        <mxCell id="Xi_-Juw8ynzdb2QV2Gdj-16" value="Tidying&lt;br&gt;所有任务终止，待处理任务数量为0&lt;br&gt;执行terminated钩子函数" style="rounded=0;whiteSpace=wrap;html=1;" vertex="1" parent="1">
          <mxGeometry y="710" width="190" height="60" as="geometry" />
        </mxCell>
        <mxCell id="Xi_-Juw8ynzdb2QV2Gdj-17" value="Terminated&lt;br&gt;terminated()执行完成" style="rounded=0;whiteSpace=wrap;html=1;" vertex="1" parent="1">
          <mxGeometry y="780" width="190" height="60" as="geometry" />
        </mxCell>
        <mxCell id="Xi_-Juw8ynzdb2QV2Gdj-42" value="&lt;meta charset=&quot;utf-8&quot;&gt;&lt;span style=&quot;color: rgb(0, 0, 0); font-family: Helvetica; font-size: 11px; font-style: normal; font-variant-ligatures: normal; font-variant-caps: normal; font-weight: 400; letter-spacing: normal; orphans: 2; text-align: center; text-indent: 0px; text-transform: none; widows: 2; word-spacing: 0px; -webkit-text-stroke-width: 0px; background-color: rgb(255, 255, 255); text-decoration-thickness: initial; text-decoration-style: initial; text-decoration-color: initial; float: none; display: inline !important;&quot;&gt;#ShutDown()&lt;/span&gt;" style="edgeStyle=orthogonalEdgeStyle;rounded=0;orthogonalLoop=1;jettySize=auto;html=1;strokeWidth=1;" edge="1" parent="1" source="Xi_-Juw8ynzdb2QV2Gdj-40" target="Xi_-Juw8ynzdb2QV2Gdj-41">
          <mxGeometry relative="1" as="geometry" />
        </mxCell>
        <mxCell id="Xi_-Juw8ynzdb2QV2Gdj-45" value="&lt;meta charset=&quot;utf-8&quot;&gt;&lt;span style=&quot;color: rgb(0, 0, 0); font-family: Helvetica; font-size: 11px; font-style: normal; font-variant-ligatures: normal; font-variant-caps: normal; font-weight: 400; letter-spacing: normal; orphans: 2; text-align: center; text-indent: 0px; text-transform: none; widows: 2; word-spacing: 0px; -webkit-text-stroke-width: 0px; background-color: rgb(255, 255, 255); text-decoration-thickness: initial; text-decoration-style: initial; text-decoration-color: initial; float: none; display: inline !important;&quot;&gt;#ShutDownNow()&lt;/span&gt;" style="edgeStyle=orthogonalEdgeStyle;rounded=0;orthogonalLoop=1;jettySize=auto;html=1;exitX=1;exitY=0.5;exitDx=0;exitDy=0;strokeWidth=1;" edge="1" parent="1" source="Xi_-Juw8ynzdb2QV2Gdj-40" target="Xi_-Juw8ynzdb2QV2Gdj-43">
          <mxGeometry relative="1" as="geometry" />
        </mxCell>
        <mxCell id="Xi_-Juw8ynzdb2QV2Gdj-40" value="Running" style="rounded=0;whiteSpace=wrap;html=1;" vertex="1" parent="1">
          <mxGeometry x="300" y="510" width="120" height="60" as="geometry" />
        </mxCell>
        <mxCell id="Xi_-Juw8ynzdb2QV2Gdj-44" value="&lt;meta charset=&quot;utf-8&quot;&gt;&lt;span style=&quot;color: rgb(0, 0, 0); font-family: Helvetica; font-size: 11px; font-style: normal; font-variant-ligatures: normal; font-variant-caps: normal; font-weight: 400; letter-spacing: normal; orphans: 2; text-align: center; text-indent: 0px; text-transform: none; widows: 2; word-spacing: 0px; -webkit-text-stroke-width: 0px; background-color: rgb(255, 255, 255); text-decoration-thickness: initial; text-decoration-style: initial; text-decoration-color: initial; float: none; display: inline !important;&quot;&gt;#ShutDownNow()&lt;/span&gt;" style="edgeStyle=orthogonalEdgeStyle;rounded=0;orthogonalLoop=1;jettySize=auto;html=1;strokeWidth=1;" edge="1" parent="1" source="Xi_-Juw8ynzdb2QV2Gdj-41" target="Xi_-Juw8ynzdb2QV2Gdj-43">
          <mxGeometry relative="1" as="geometry" />
        </mxCell>
        <mxCell id="Xi_-Juw8ynzdb2QV2Gdj-47" value="" style="edgeStyle=orthogonalEdgeStyle;rounded=0;orthogonalLoop=1;jettySize=auto;html=1;strokeWidth=1;" edge="1" parent="1" source="Xi_-Juw8ynzdb2QV2Gdj-41" target="Xi_-Juw8ynzdb2QV2Gdj-46">
          <mxGeometry relative="1" as="geometry" />
        </mxCell>
        <mxCell id="Xi_-Juw8ynzdb2QV2Gdj-41" value="ShutDown" style="rounded=0;whiteSpace=wrap;html=1;" vertex="1" parent="1">
          <mxGeometry x="300" y="630" width="120" height="60" as="geometry" />
        </mxCell>
        <mxCell id="Xi_-Juw8ynzdb2QV2Gdj-50" style="edgeStyle=orthogonalEdgeStyle;rounded=0;orthogonalLoop=1;jettySize=auto;html=1;exitX=0.5;exitY=1;exitDx=0;exitDy=0;entryX=0.5;entryY=0;entryDx=0;entryDy=0;strokeWidth=1;" edge="1" parent="1" source="Xi_-Juw8ynzdb2QV2Gdj-43" target="Xi_-Juw8ynzdb2QV2Gdj-46">
          <mxGeometry relative="1" as="geometry">
            <Array as="points">
              <mxPoint x="615" y="700" />
              <mxPoint x="360" y="700" />
            </Array>
          </mxGeometry>
        </mxCell>
        <mxCell id="Xi_-Juw8ynzdb2QV2Gdj-51" value="队列和线程池都为空" style="edgeLabel;html=1;align=center;verticalAlign=middle;resizable=0;points=[];" vertex="1" connectable="0" parent="Xi_-Juw8ynzdb2QV2Gdj-50">
          <mxGeometry x="0.8063" y="1" relative="1" as="geometry">
            <mxPoint y="1" as="offset" />
          </mxGeometry>
        </mxCell>
        <mxCell id="Xi_-Juw8ynzdb2QV2Gdj-43" value="Stop" style="rounded=0;whiteSpace=wrap;html=1;" vertex="1" parent="1">
          <mxGeometry x="555" y="630" width="120" height="60" as="geometry" />
        </mxCell>
        <mxCell id="Xi_-Juw8ynzdb2QV2Gdj-53" value="&lt;meta charset=&quot;utf-8&quot;&gt;&lt;span style=&quot;color: rgb(0, 0, 0); font-family: Helvetica; font-size: 11px; font-style: normal; font-variant-ligatures: normal; font-variant-caps: normal; font-weight: 400; letter-spacing: normal; orphans: 2; text-align: center; text-indent: 0px; text-transform: none; widows: 2; word-spacing: 0px; -webkit-text-stroke-width: 0px; background-color: rgb(255, 255, 255); text-decoration-thickness: initial; text-decoration-style: initial; text-decoration-color: initial; float: none; display: inline !important;&quot;&gt;#terminated()&lt;/span&gt;" style="edgeStyle=orthogonalEdgeStyle;rounded=0;orthogonalLoop=1;jettySize=auto;html=1;strokeWidth=1;" edge="1" parent="1" source="Xi_-Juw8ynzdb2QV2Gdj-46" target="Xi_-Juw8ynzdb2QV2Gdj-52">
          <mxGeometry relative="1" as="geometry" />
        </mxCell>
        <mxCell id="Xi_-Juw8ynzdb2QV2Gdj-46" value="Tidying" style="rounded=0;whiteSpace=wrap;html=1;" vertex="1" parent="1">
          <mxGeometry x="300" y="750" width="120" height="60" as="geometry" />
        </mxCell>
        <mxCell id="Xi_-Juw8ynzdb2QV2Gdj-52" value="Terminated" style="rounded=0;whiteSpace=wrap;html=1;" vertex="1" parent="1">
          <mxGeometry x="555" y="750" width="120" height="60" as="geometry" />
        </mxCell>
        <mxCell id="Xi_-Juw8ynzdb2QV2Gdj-54" value="" style="endArrow=none;html=1;rounded=0;strokeWidth=13;" edge="1" parent="1">
          <mxGeometry width="50" height="50" relative="1" as="geometry">
            <mxPoint x="7" y="870" as="sourcePoint" />
            <mxPoint x="827" y="870" as="targetPoint" />
          </mxGeometry>
        </mxCell>
        <mxCell id="Xi_-Juw8ynzdb2QV2Gdj-55" value="线程池执行Task" style="labelPosition=center;verticalLabelPosition=middle;align=center;html=1;shape=mxgraph.basic.shaded_button;dx=10;fillColor=#E6E6E6;strokeColor=none;" vertex="1" parent="1">
          <mxGeometry y="880" width="110" height="60" as="geometry" />
        </mxCell>
        <mxCell id="Xi_-Juw8ynzdb2QV2Gdj-56" value="核心线程&lt;br&gt;执行task" style="rounded=0;whiteSpace=wrap;html=1;" vertex="1" parent="1">
          <mxGeometry x="410" y="1050" width="120" height="60" as="geometry" />
        </mxCell>
        <mxCell id="Xi_-Juw8ynzdb2QV2Gdj-58" value="No" style="edgeStyle=orthogonalEdgeStyle;rounded=0;orthogonalLoop=1;jettySize=auto;html=1;strokeWidth=1;" edge="1" parent="1" source="Xi_-Juw8ynzdb2QV2Gdj-57" target="Xi_-Juw8ynzdb2QV2Gdj-56">
          <mxGeometry relative="1" as="geometry" />
        </mxCell>
        <mxCell id="Xi_-Juw8ynzdb2QV2Gdj-61" value="Yes" style="edgeStyle=orthogonalEdgeStyle;rounded=0;orthogonalLoop=1;jettySize=auto;html=1;strokeWidth=1;fillColor=#d5e8d4;strokeColor=#82b366;" edge="1" parent="1" source="Xi_-Juw8ynzdb2QV2Gdj-57">
          <mxGeometry relative="1" as="geometry">
            <mxPoint x="265" y="1159" as="targetPoint" />
          </mxGeometry>
        </mxCell>
        <mxCell id="Xi_-Juw8ynzdb2QV2Gdj-57" value="CoreThread&lt;br&gt;是否满" style="rhombus;whiteSpace=wrap;html=1;fillColor=#d5e8d4;strokeColor=#82b366;" vertex="1" parent="1">
          <mxGeometry x="200" y="1050" width="130" height="60" as="geometry" />
        </mxCell>
        <mxCell id="Xi_-Juw8ynzdb2QV2Gdj-68" value="Yes" style="edgeStyle=orthogonalEdgeStyle;rounded=0;orthogonalLoop=1;jettySize=auto;html=1;strokeWidth=1;entryX=0;entryY=0.5;entryDx=0;entryDy=0;" edge="1" parent="1" source="Xi_-Juw8ynzdb2QV2Gdj-63" target="Xi_-Juw8ynzdb2QV2Gdj-70">
          <mxGeometry relative="1" as="geometry">
            <mxPoint x="410" y="1189" as="targetPoint" />
          </mxGeometry>
        </mxCell>
        <mxCell id="Xi_-Juw8ynzdb2QV2Gdj-74" value="No" style="edgeStyle=orthogonalEdgeStyle;rounded=0;orthogonalLoop=1;jettySize=auto;html=1;strokeWidth=1;fillColor=#d5e8d4;strokeColor=#82b366;" edge="1" parent="1" source="Xi_-Juw8ynzdb2QV2Gdj-63">
          <mxGeometry relative="1" as="geometry">
            <mxPoint x="265" y="1260" as="targetPoint" />
          </mxGeometry>
        </mxCell>
        <mxCell id="Xi_-Juw8ynzdb2QV2Gdj-63" value="线程池正在运行&lt;br&gt;workQueue未满" style="rhombus;whiteSpace=wrap;html=1;fillColor=#d5e8d4;strokeColor=#82b366;" vertex="1" parent="1">
          <mxGeometry x="200" y="1159" width="130" height="60" as="geometry" />
        </mxCell>
        <mxCell id="Xi_-Juw8ynzdb2QV2Gdj-65" value="" style="edgeStyle=orthogonalEdgeStyle;rounded=0;orthogonalLoop=1;jettySize=auto;html=1;strokeWidth=1;" edge="1" parent="1" source="Xi_-Juw8ynzdb2QV2Gdj-64" target="Xi_-Juw8ynzdb2QV2Gdj-57">
          <mxGeometry relative="1" as="geometry" />
        </mxCell>
        <mxCell id="Xi_-Juw8ynzdb2QV2Gdj-66" value="submit" style="edgeLabel;html=1;align=center;verticalAlign=middle;resizable=0;points=[];" vertex="1" connectable="0" parent="Xi_-Juw8ynzdb2QV2Gdj-65">
          <mxGeometry relative="1" as="geometry">
            <mxPoint as="offset" />
          </mxGeometry>
        </mxCell>
        <mxCell id="Xi_-Juw8ynzdb2QV2Gdj-64" value="Task" style="rounded=0;whiteSpace=wrap;html=1;" vertex="1" parent="1">
          <mxGeometry x="10" y="1050" width="120" height="60" as="geometry" />
        </mxCell>
        <mxCell id="Xi_-Juw8ynzdb2QV2Gdj-76" value="" style="edgeStyle=orthogonalEdgeStyle;rounded=0;orthogonalLoop=1;jettySize=auto;html=1;strokeWidth=1;entryX=0;entryY=0.5;entryDx=0;entryDy=0;" edge="1" parent="1" source="Xi_-Juw8ynzdb2QV2Gdj-70" target="Xi_-Juw8ynzdb2QV2Gdj-77">
          <mxGeometry relative="1" as="geometry">
            <mxPoint x="630" y="1189" as="targetPoint" />
          </mxGeometry>
        </mxCell>
        <mxCell id="Xi_-Juw8ynzdb2QV2Gdj-70" value="加入WorkQueue" style="rounded=0;whiteSpace=wrap;html=1;" vertex="1" parent="1">
          <mxGeometry x="410" y="1159" width="120" height="60" as="geometry" />
        </mxCell>
        <mxCell id="Xi_-Juw8ynzdb2QV2Gdj-79" value="Yes" style="edgeStyle=orthogonalEdgeStyle;rounded=0;orthogonalLoop=1;jettySize=auto;html=1;strokeWidth=1;" edge="1" parent="1" source="Xi_-Juw8ynzdb2QV2Gdj-77" target="Xi_-Juw8ynzdb2QV2Gdj-78">
          <mxGeometry relative="1" as="geometry" />
        </mxCell>
        <mxCell id="Xi_-Juw8ynzdb2QV2Gdj-88" style="edgeStyle=orthogonalEdgeStyle;rounded=0;orthogonalLoop=1;jettySize=auto;html=1;entryX=0;entryY=0.5;entryDx=0;entryDy=0;strokeWidth=1;exitX=0.5;exitY=1;exitDx=0;exitDy=0;" edge="1" parent="1" source="Xi_-Juw8ynzdb2QV2Gdj-77" target="Xi_-Juw8ynzdb2QV2Gdj-90">
          <mxGeometry relative="1" as="geometry">
            <mxPoint x="740" y="1260" as="targetPoint" />
          </mxGeometry>
        </mxCell>
        <mxCell id="Xi_-Juw8ynzdb2QV2Gdj-89" value="No" style="edgeLabel;html=1;align=center;verticalAlign=middle;resizable=0;points=[];" vertex="1" connectable="0" parent="Xi_-Juw8ynzdb2QV2Gdj-88">
          <mxGeometry x="0.0361" y="2" relative="1" as="geometry">
            <mxPoint y="1" as="offset" />
          </mxGeometry>
        </mxCell>
        <mxCell id="Xi_-Juw8ynzdb2QV2Gdj-77" value="线程池停止运行" style="rhombus;whiteSpace=wrap;html=1;fillColor=#fff2cc;strokeColor=#d6b656;" vertex="1" parent="1">
          <mxGeometry x="550" y="1159" width="130" height="60" as="geometry" />
        </mxCell>
        <mxCell id="Xi_-Juw8ynzdb2QV2Gdj-78" value="WorkQueue移除任务" style="whiteSpace=wrap;html=1;" vertex="1" parent="1">
          <mxGeometry x="730" y="1159" width="120" height="60" as="geometry" />
        </mxCell>
        <mxCell id="Xi_-Juw8ynzdb2QV2Gdj-82" value="Fail" style="edgeStyle=orthogonalEdgeStyle;rounded=0;orthogonalLoop=1;jettySize=auto;html=1;strokeWidth=1;" edge="1" parent="1" source="Xi_-Juw8ynzdb2QV2Gdj-80" target="Xi_-Juw8ynzdb2QV2Gdj-81">
          <mxGeometry relative="1" as="geometry" />
        </mxCell>
        <mxCell id="Xi_-Juw8ynzdb2QV2Gdj-86" value="Success" style="edgeStyle=orthogonalEdgeStyle;rounded=0;orthogonalLoop=1;jettySize=auto;html=1;strokeWidth=1;" edge="1" parent="1" source="Xi_-Juw8ynzdb2QV2Gdj-80" target="Xi_-Juw8ynzdb2QV2Gdj-85">
          <mxGeometry relative="1" as="geometry" />
        </mxCell>
        <mxCell id="Xi_-Juw8ynzdb2QV2Gdj-80" value="提交由最大线程数执行的任务" style="rhombus;whiteSpace=wrap;html=1;fillColor=#d5e8d4;strokeColor=#82b366;" vertex="1" parent="1">
          <mxGeometry x="200" y="1260" width="130" height="60" as="geometry" />
        </mxCell>
        <mxCell id="Xi_-Juw8ynzdb2QV2Gdj-81" value="执行拒绝策略" style="whiteSpace=wrap;html=1;fillColor=#f8cecc;strokeColor=#b85450;" vertex="1" parent="1">
          <mxGeometry x="205" y="1370" width="120" height="60" as="geometry" />
        </mxCell>
        <mxCell id="Xi_-Juw8ynzdb2QV2Gdj-85" value="结束" style="whiteSpace=wrap;html=1;" vertex="1" parent="1">
          <mxGeometry x="410" y="1260" width="120" height="60" as="geometry" />
        </mxCell>
        <mxCell id="Xi_-Juw8ynzdb2QV2Gdj-92" value="Yes" style="edgeStyle=orthogonalEdgeStyle;rounded=0;orthogonalLoop=1;jettySize=auto;html=1;strokeWidth=1;" edge="1" parent="1" source="Xi_-Juw8ynzdb2QV2Gdj-90" target="Xi_-Juw8ynzdb2QV2Gdj-91">
          <mxGeometry relative="1" as="geometry" />
        </mxCell>
        <mxCell id="Xi_-Juw8ynzdb2QV2Gdj-90" value="工作线程数==0" style="rhombus;whiteSpace=wrap;html=1;fillColor=#f5f5f5;fontColor=#333333;strokeColor=#666666;" vertex="1" parent="1">
          <mxGeometry x="730" y="1240" width="130" height="60" as="geometry" />
        </mxCell>
        <mxCell id="Xi_-Juw8ynzdb2QV2Gdj-91" value="addWork&lt;br&gt;提交最大线程执行任务" style="whiteSpace=wrap;html=1;" vertex="1" parent="1">
          <mxGeometry x="920" y="1240" width="120" height="60" as="geometry" />
        </mxCell>
        <mxCell id="Xi_-Juw8ynzdb2QV2Gdj-98" style="edgeStyle=orthogonalEdgeStyle;rounded=0;orthogonalLoop=1;jettySize=auto;html=1;entryX=0.5;entryY=0;entryDx=0;entryDy=0;entryPerimeter=0;strokeWidth=1;exitX=0.5;exitY=0;exitDx=0;exitDy=0;exitPerimeter=0;fillColor=#dae8fc;strokeColor=#000000;" edge="1" parent="1" source="Xi_-Juw8ynzdb2QV2Gdj-93" target="Xi_-Juw8ynzdb2QV2Gdj-94">
          <mxGeometry relative="1" as="geometry" />
        </mxCell>
        <mxCell id="Xi_-Juw8ynzdb2QV2Gdj-93" value="CoreThread" style="shape=cylinder3;whiteSpace=wrap;html=1;boundedLbl=1;backgroundOutline=1;size=15;lid=0;fillColor=#dae8fc;strokeColor=#6c8ebf;" vertex="1" parent="1">
          <mxGeometry x="170" y="950" width="60" height="80" as="geometry" />
        </mxCell>
        <mxCell id="Xi_-Juw8ynzdb2QV2Gdj-99" style="edgeStyle=orthogonalEdgeStyle;rounded=0;orthogonalLoop=1;jettySize=auto;html=1;entryX=0.5;entryY=0;entryDx=0;entryDy=0;entryPerimeter=0;strokeWidth=1;exitX=0.5;exitY=0;exitDx=0;exitDy=0;exitPerimeter=0;fillColor=#dae8fc;strokeColor=#000000;" edge="1" parent="1" source="Xi_-Juw8ynzdb2QV2Gdj-94" target="Xi_-Juw8ynzdb2QV2Gdj-95">
          <mxGeometry relative="1" as="geometry" />
        </mxCell>
        <mxCell id="Xi_-Juw8ynzdb2QV2Gdj-94" value="BlockingQueue" style="shape=cylinder3;whiteSpace=wrap;html=1;boundedLbl=1;backgroundOutline=1;size=15;lid=0;fillColor=#dae8fc;strokeColor=#6c8ebf;" vertex="1" parent="1">
          <mxGeometry x="300" y="950" width="60" height="80" as="geometry" />
        </mxCell>
        <mxCell id="Xi_-Juw8ynzdb2QV2Gdj-103" style="edgeStyle=orthogonalEdgeStyle;rounded=0;orthogonalLoop=1;jettySize=auto;html=1;entryX=0.5;entryY=0;entryDx=0;entryDy=0;strokeWidth=1;exitX=0.5;exitY=0;exitDx=0;exitDy=0;exitPerimeter=0;" edge="1" parent="1" source="Xi_-Juw8ynzdb2QV2Gdj-95" target="Xi_-Juw8ynzdb2QV2Gdj-101">
          <mxGeometry relative="1" as="geometry" />
        </mxCell>
        <mxCell id="Xi_-Juw8ynzdb2QV2Gdj-95" value="MaxThread" style="shape=cylinder3;whiteSpace=wrap;html=1;boundedLbl=1;backgroundOutline=1;size=15;lid=0;fillColor=#dae8fc;strokeColor=#6c8ebf;" vertex="1" parent="1">
          <mxGeometry x="440" y="950" width="60" height="80" as="geometry" />
        </mxCell>
        <mxCell id="Xi_-Juw8ynzdb2QV2Gdj-101" value="reject" style="rounded=0;whiteSpace=wrap;html=1;fillColor=#f8cecc;strokeColor=#b85450;" vertex="1" parent="1">
          <mxGeometry x="565" y="960" width="120" height="60" as="geometry" />
        </mxCell>
        <mxCell id="Xi_-Juw8ynzdb2QV2Gdj-104" value="就像蓄水池一样，溢出就到下一个容器&lt;br&gt;直到执行拒绝策略" style="text;html=1;strokeColor=none;fillColor=none;align=center;verticalAlign=middle;whiteSpace=wrap;rounded=0;" vertex="1" parent="1">
          <mxGeometry x="245" y="890" width="290" height="30" as="geometry" />
        </mxCell>
      </root>
    </mxGraphModel>
  </diagram>
</mxfile>
